<svg width="1920" height="1543" viewBox="0 0 1920 1543" fill="none" xmlns="http://www.w3.org/2000/svg">
<path opacity="0.2" d="M-13.2441 3.98368L-12.4089 0.454456C509.629 136.47 482.089 471.024 452.061 825.523C429.712 1090.94 407.256 1365.19 608.631 1579.23C770.332 1751.06 901.031 1686.71 1052.34 1611.85C1161.9 1558.14 1285.42 1496.81 1439.53 1519.24C1615.94 1545.02 1804.03 1676.71 2014.15 1921.99L2011.34 1924.39C1802 1680.01 1614.57 1548.69 1439.35 1523.14C1286.96 1500.81 1163.31 1561.61 1054.28 1615.18C901.382 1690.47 769.749 1755.62 605.827 1581.63C403.013 1366.34 425.873 1091.42 448.097 825.489C477.971 472.683 505.764 139.162 -13.2441 3.98368Z" fill="#ABABAB"/>
</svg>
